<mxfile host="app.diagrams.net" agent="Mozilla/5.0 (Windows NT 10.0; Win64; x64) AppleWebKit/537.36 (KHTML, like Gecko) Chrome/128.0.0.0 Safari/537.36" version="24.7.12">
  <diagram name="Page-1" id="eNnNtD4QA7iPvCxz_4bJ">
    <mxGraphModel dx="1434" dy="738" grid="1" gridSize="10" guides="1" tooltips="1" connect="1" arrows="1" fold="1" page="1" pageScale="1" pageWidth="3300" pageHeight="4681" math="0" shadow="0">
      <root>
        <mxCell id="0" />
        <mxCell id="1" parent="0" />
        <mxCell id="R7utHCCCWWbZbcOUrzLS-1" value="" style="ellipse;html=1;shape=startState;fillColor=#000000;strokeColor=#ff0000;" vertex="1" parent="1">
          <mxGeometry x="560" y="100" width="30" height="30" as="geometry" />
        </mxCell>
        <mxCell id="R7utHCCCWWbZbcOUrzLS-2" value="" style="edgeStyle=orthogonalEdgeStyle;html=1;verticalAlign=bottom;endArrow=open;endSize=8;strokeColor=#ff0000;rounded=0;" edge="1" source="R7utHCCCWWbZbcOUrzLS-1" parent="1">
          <mxGeometry relative="1" as="geometry">
            <mxPoint x="575" y="190" as="targetPoint" />
          </mxGeometry>
        </mxCell>
        <mxCell id="R7utHCCCWWbZbcOUrzLS-3" value="Start" style="text;html=1;align=center;verticalAlign=middle;resizable=0;points=[];autosize=1;strokeColor=none;fillColor=none;" vertex="1" parent="1">
          <mxGeometry x="550" y="70" width="50" height="30" as="geometry" />
        </mxCell>
        <mxCell id="R7utHCCCWWbZbcOUrzLS-5" style="edgeStyle=orthogonalEdgeStyle;rounded=0;orthogonalLoop=1;jettySize=auto;html=1;exitX=1;exitY=0.5;exitDx=0;exitDy=0;" edge="1" parent="1" source="R7utHCCCWWbZbcOUrzLS-4">
          <mxGeometry relative="1" as="geometry">
            <mxPoint x="760" y="240" as="targetPoint" />
          </mxGeometry>
        </mxCell>
        <mxCell id="R7utHCCCWWbZbcOUrzLS-4" value="A. Claim&lt;br&gt;Submission" style="rounded=1;whiteSpace=wrap;html=1;absoluteArcSize=1;arcSize=14;strokeWidth=2;" vertex="1" parent="1">
          <mxGeometry x="510" y="190" width="140" height="100" as="geometry" />
        </mxCell>
        <mxCell id="R7utHCCCWWbZbcOUrzLS-8" style="edgeStyle=orthogonalEdgeStyle;rounded=0;orthogonalLoop=1;jettySize=auto;html=1;exitX=1;exitY=0.5;exitDx=0;exitDy=0;entryX=0;entryY=0.5;entryDx=0;entryDy=0;" edge="1" parent="1" source="R7utHCCCWWbZbcOUrzLS-6" target="R7utHCCCWWbZbcOUrzLS-7">
          <mxGeometry relative="1" as="geometry" />
        </mxCell>
        <mxCell id="R7utHCCCWWbZbcOUrzLS-6" value="B. Receiving of Claim" style="rounded=1;whiteSpace=wrap;html=1;absoluteArcSize=1;arcSize=14;strokeWidth=2;" vertex="1" parent="1">
          <mxGeometry x="760" y="190" width="140" height="100" as="geometry" />
        </mxCell>
        <mxCell id="R7utHCCCWWbZbcOUrzLS-9" style="edgeStyle=orthogonalEdgeStyle;rounded=0;orthogonalLoop=1;jettySize=auto;html=1;exitX=1;exitY=0.5;exitDx=0;exitDy=0;" edge="1" parent="1" source="R7utHCCCWWbZbcOUrzLS-7">
          <mxGeometry relative="1" as="geometry">
            <mxPoint x="1280" y="240" as="targetPoint" />
          </mxGeometry>
        </mxCell>
        <mxCell id="R7utHCCCWWbZbcOUrzLS-7" value="C. Claim Initiation" style="rounded=1;whiteSpace=wrap;html=1;absoluteArcSize=1;arcSize=14;strokeWidth=2;" vertex="1" parent="1">
          <mxGeometry x="1030" y="190" width="140" height="100" as="geometry" />
        </mxCell>
        <mxCell id="R7utHCCCWWbZbcOUrzLS-11" style="edgeStyle=orthogonalEdgeStyle;rounded=0;orthogonalLoop=1;jettySize=auto;html=1;exitX=0.5;exitY=1;exitDx=0;exitDy=0;" edge="1" parent="1" source="R7utHCCCWWbZbcOUrzLS-10">
          <mxGeometry relative="1" as="geometry">
            <mxPoint x="1350" y="380" as="targetPoint" />
          </mxGeometry>
        </mxCell>
        <mxCell id="R7utHCCCWWbZbcOUrzLS-10" value="D Perfomance of Checks&amp;nbsp;&lt;br&gt;on Claim" style="rounded=1;whiteSpace=wrap;html=1;absoluteArcSize=1;arcSize=14;strokeWidth=2;" vertex="1" parent="1">
          <mxGeometry x="1280" y="190" width="140" height="100" as="geometry" />
        </mxCell>
        <mxCell id="R7utHCCCWWbZbcOUrzLS-13" style="edgeStyle=orthogonalEdgeStyle;rounded=0;orthogonalLoop=1;jettySize=auto;html=1;exitX=0;exitY=0.5;exitDx=0;exitDy=0;" edge="1" parent="1" source="R7utHCCCWWbZbcOUrzLS-12">
          <mxGeometry relative="1" as="geometry">
            <mxPoint x="1180" y="430" as="targetPoint" />
          </mxGeometry>
        </mxCell>
        <mxCell id="R7utHCCCWWbZbcOUrzLS-12" value="E. Processing and approval or repudiation of claim" style="rounded=1;whiteSpace=wrap;html=1;absoluteArcSize=1;arcSize=14;strokeWidth=2;" vertex="1" parent="1">
          <mxGeometry x="1280" y="380" width="140" height="100" as="geometry" />
        </mxCell>
        <mxCell id="R7utHCCCWWbZbcOUrzLS-15" style="edgeStyle=orthogonalEdgeStyle;rounded=0;orthogonalLoop=1;jettySize=auto;html=1;exitX=0;exitY=0.5;exitDx=0;exitDy=0;" edge="1" parent="1" source="R7utHCCCWWbZbcOUrzLS-14">
          <mxGeometry relative="1" as="geometry">
            <mxPoint x="910" y="430" as="targetPoint" />
          </mxGeometry>
        </mxCell>
        <mxCell id="R7utHCCCWWbZbcOUrzLS-14" value="F. Payment of Claim" style="rounded=1;whiteSpace=wrap;html=1;absoluteArcSize=1;arcSize=14;strokeWidth=2;" vertex="1" parent="1">
          <mxGeometry x="1040" y="380" width="140" height="100" as="geometry" />
        </mxCell>
        <mxCell id="R7utHCCCWWbZbcOUrzLS-18" style="edgeStyle=orthogonalEdgeStyle;rounded=0;orthogonalLoop=1;jettySize=auto;html=1;exitX=0;exitY=0.5;exitDx=0;exitDy=0;" edge="1" parent="1" source="R7utHCCCWWbZbcOUrzLS-16" target="R7utHCCCWWbZbcOUrzLS-17">
          <mxGeometry relative="1" as="geometry" />
        </mxCell>
        <mxCell id="R7utHCCCWWbZbcOUrzLS-16" value="G. Closing of Claim" style="rounded=1;whiteSpace=wrap;html=1;absoluteArcSize=1;arcSize=14;strokeWidth=2;" vertex="1" parent="1">
          <mxGeometry x="770" y="380" width="140" height="100" as="geometry" />
        </mxCell>
        <mxCell id="R7utHCCCWWbZbcOUrzLS-19" style="edgeStyle=orthogonalEdgeStyle;rounded=0;orthogonalLoop=1;jettySize=auto;html=1;exitX=0.5;exitY=1;exitDx=0;exitDy=0;" edge="1" parent="1" source="R7utHCCCWWbZbcOUrzLS-17">
          <mxGeometry relative="1" as="geometry">
            <mxPoint x="575" y="560" as="targetPoint" />
          </mxGeometry>
        </mxCell>
        <mxCell id="R7utHCCCWWbZbcOUrzLS-17" value="G. Closing of Claim" style="rounded=1;whiteSpace=wrap;html=1;absoluteArcSize=1;arcSize=14;strokeWidth=2;" vertex="1" parent="1">
          <mxGeometry x="505" y="380" width="140" height="100" as="geometry" />
        </mxCell>
        <mxCell id="R7utHCCCWWbZbcOUrzLS-20" value="" style="ellipse;html=1;shape=endState;fillColor=#000000;strokeColor=#ff0000;" vertex="1" parent="1">
          <mxGeometry x="550" y="560" width="50" height="50" as="geometry" />
        </mxCell>
      </root>
    </mxGraphModel>
  </diagram>
</mxfile>
